<svg width="910" height="404" viewBox="0 0 910 404" fill="none" xmlns="http://www.w3.org/2000/svg">
<path d="M845.446 0.686633C871.031 0.591221 910 11.9508 910 11.9508V403.635H0.145264C0.145264 403.635 35.4073 344.072 68.7656 316.594C106.364 285.624 134.176 275.461 181.1 262.834C247.838 244.874 289.938 250.863 357.988 262.834C420.879 273.897 453.483 291.095 514.035 311.474C558.391 326.402 626.369 353.971 626.369 353.971C626.369 353.971 671.923 368.996 693.465 353.971C713.117 340.263 718.371 324.274 718.371 297.65C718.371 271.026 710.747 232.625 701.597 209.073C692.448 185.521 690.724 146.045 701.597 108.208C711.878 72.4352 721.52 49.403 750.902 26.7989C781.328 3.39229 807.162 0.829401 845.446 0.686633Z" fill="url(#paint0_linear_16_1374)"/>
<defs>
<linearGradient id="paint0_linear_16_1374" x1="-218.931" y1="299.186" x2="910" y2="304.232" gradientUnits="userSpaceOnUse">
<stop stop-color="#5017CB" stop-opacity="0.69"/>
<stop offset="1" stop-color="#D9D9D9" stop-opacity="0"/>
<stop offset="1" stop-color="#301076" stop-opacity="0"/>
</linearGradient>
</defs>
</svg>
